<svg xmlns="http://www.w3.org/2000/svg" width="19.188" height="19.188" viewBox="0 0 19.188 19.188">
  <path id="_4691240_instagram_icon" data-name="4691240_instagram_icon" d="M9.594,0C6.987,0,6.662.012,5.639.058A7.074,7.074,0,0,0,3.31.5,4.7,4.7,0,0,0,1.61,1.61,4.681,4.681,0,0,0,.5,3.31,7.054,7.054,0,0,0,.058,5.639C.01,6.662,0,6.987,0,9.594s.012,2.932.058,3.955A7.079,7.079,0,0,0,.5,15.878a4.7,4.7,0,0,0,1.106,1.7,4.691,4.691,0,0,0,1.7,1.106,7.083,7.083,0,0,0,2.329.446c1.023.048,1.349.058,3.955.058s2.932-.012,3.955-.058a7.1,7.1,0,0,0,2.329-.446,4.9,4.9,0,0,0,2.806-2.806,7.079,7.079,0,0,0,.446-2.329c.048-1.023.058-1.349.058-3.955s-.012-2.932-.058-3.955a7.1,7.1,0,0,0-.446-2.329,4.709,4.709,0,0,0-1.106-1.7A4.674,4.674,0,0,0,15.878.5,7.058,7.058,0,0,0,13.549.058C12.525.01,12.2,0,9.594,0Zm0,1.727c2.561,0,2.866.013,3.877.057a5.286,5.286,0,0,1,1.78.332,3.157,3.157,0,0,1,1.821,1.82,5.3,5.3,0,0,1,.33,1.78c.046,1.012.056,1.316.056,3.877s-.012,2.866-.059,3.877a5.4,5.4,0,0,1-.337,1.78,3.046,3.046,0,0,1-.719,1.1,2.993,2.993,0,0,1-1.1.716,5.336,5.336,0,0,1-1.787.33c-1.019.046-1.318.056-3.885.056S6.7,17.447,5.685,17.4A5.44,5.44,0,0,1,3.9,17.063a2.971,2.971,0,0,1-1.1-.719,2.913,2.913,0,0,1-.72-1.1,5.445,5.445,0,0,1-.336-1.787c-.036-1.007-.049-1.318-.049-3.873S1.7,6.715,1.74,5.7a5.438,5.438,0,0,1,.336-1.786,2.844,2.844,0,0,1,.72-1.1,2.838,2.838,0,0,1,1.1-.718,5.31,5.31,0,0,1,1.776-.337C6.692,1.715,6.992,1.7,9.558,1.7l.036.024Zm0,2.94A4.926,4.926,0,1,0,14.52,9.594,4.926,4.926,0,0,0,9.594,4.667Zm0,8.124a3.2,3.2,0,1,1,3.2-3.2A3.2,3.2,0,0,1,9.594,12.792Zm6.273-8.319a1.151,1.151,0,1,1-1.151-1.15A1.152,1.152,0,0,1,15.866,4.473Z" fill="#fff"/>
</svg>
