<svg id="_216394_linkedin_social_icon" data-name="216394_linkedin_social_icon" xmlns="http://www.w3.org/2000/svg" width="19.426" height="19.356" viewBox="0 0 19.426 19.356">
  <g id="Grupo_5030" data-name="Grupo 5030" transform="translate(0.069 5.531)">
    <path id="Trazado_590" data-name="Trazado 590" d="M9.148,22.826H5V9H9.148Zm15.209,0H20.209V15.44c0-1.925-.686-2.883-2.045-2.883a2.043,2.043,0,0,0-2.1,1.611v8.658H11.913s.055-12.444,0-13.826h3.274l.253,2.765h.086A4.617,4.617,0,0,1,19.6,9.445a4.294,4.294,0,0,1,3.439,1.384,5.983,5.983,0,0,1,1.319,4.189Z" transform="translate(-5 -9)" fill="#fff"/>
  </g>
  <g id="Grupo_5031" data-name="Grupo 5031" transform="translate(0 0)">
    <ellipse id="Elipse_7" data-name="Elipse 7" cx="2.143" cy="2.074" rx="2.143" ry="2.074" fill="#fff"/>
  </g>
</svg>
