<svg xmlns="http://www.w3.org/2000/svg" xmlns:xlink="http://www.w3.org/1999/xlink" width="82.211" height="15" viewBox="0 0 82.211 15">
  <defs>
    <clipPath id="clip-path">
      <rect id="Rectángulo_605" data-name="Rectángulo 605" width="82.211" height="15" fill="none"/>
    </clipPath>
  </defs>
  <g id="Grupo_78" data-name="Grupo 78" transform="translate(0 0)">
    <path id="Trazado_782" data-name="Trazado 782" d="M13.87,0,7.944,7.414,2.018,0H0V15H1.764V2.513l6.18,7.725,6.18-7.725V15h1.764V0Z" transform="translate(0)" fill="#fff"/>
    <g id="Grupo_5126" data-name="Grupo 5126" transform="translate(0 0)">
      <g id="Grupo_5125" data-name="Grupo 5125" clip-path="url(#clip-path)">
        <path id="Trazado_783" data-name="Trazado 783" d="M170.8,1.764a2.583,2.583,0,0,0-1.879.772,2.544,2.544,0,0,0-.772,1.868V6.18h12.36V7.944h-12.36v5.292h12.36V15H166.389V4.4a4.243,4.243,0,0,1,1.291-3.113A4.257,4.257,0,0,1,170.8,0h9.708V1.764Z" transform="translate(-142.517)" fill="#fff"/>
        <path id="Trazado_784" data-name="Trazado 784" d="M324.01,1.764a1.7,1.7,0,0,0-1.245.519,1.7,1.7,0,0,0-.519,1.245V4.4a1.711,1.711,0,0,0,.519,1.257,1.7,1.7,0,0,0,1.245.519h7.068a3.523,3.523,0,0,1,3.528,3.528v1.764A3.543,3.543,0,0,1,331.078,15h-10.6V13.236h10.6a1.772,1.772,0,0,0,1.764-1.764V9.708a1.674,1.674,0,0,0-.519-1.245,1.7,1.7,0,0,0-1.245-.519H324.01a3.4,3.4,0,0,1-2.49-1.038,3.409,3.409,0,0,1-1.038-2.5V3.528a3.41,3.41,0,0,1,1.038-2.5A3.416,3.416,0,0,1,324.01,0h10.6V1.764Z" transform="translate(-274.503)" fill="#fff"/>
        <path id="Trazado_785" data-name="Trazado 785" d="M488.7,0V1.764h-6.18V15h-1.764V1.764h-6.18V0Z" transform="translate(-406.489 0)" fill="#fff"/>
      </g>
    </g>
  </g>
</svg>
