<svg xmlns="http://www.w3.org/2000/svg" width="20.689" height="16.813" viewBox="0 0 20.689 16.813">
  <path id="_104501_twitter_bird_icon" data-name="104501_twitter_bird_icon" d="M24.263,12.316a8.446,8.446,0,0,1-2.438.668,4.252,4.252,0,0,0,1.866-2.349A8.5,8.5,0,0,1,21,11.667a4.248,4.248,0,0,0-7.232,3.871A12.052,12.052,0,0,1,5.015,11.1,4.25,4.25,0,0,0,6.328,16.77a4.233,4.233,0,0,1-1.923-.531c0,.018,0,.036,0,.054A4.248,4.248,0,0,0,7.81,20.455a4.268,4.268,0,0,1-1.118.149,4.205,4.205,0,0,1-.8-.076,4.249,4.249,0,0,0,3.965,2.948,8.565,8.565,0,0,1-6.284,1.758,12.072,12.072,0,0,0,18.584-10.17q0-.276-.012-.55A8.6,8.6,0,0,0,24.263,12.316Z" transform="translate(-3.574 -10.326)" fill="#fff"/>
</svg>
