<svg xmlns="http://www.w3.org/2000/svg" width="165.212" height="37" viewBox="0 0 165.212 37">
  <g id="Grupo_1382" data-name="Grupo 1382" transform="translate(-123.334 -4952.648)">
    <path id="Trazado_477" data-name="Trazado 477" d="M123.334,4952.729c2.141,0,4.07-.1,5.975.068.5.044,1.155.844,1.365,1.43,2.044,5.692,4.009,11.412,6,17.125,1.064,3.06,2.124,6.121,3.358,9.678.869-2.4,1.609-4.373,2.3-6.365,2.319-6.654,4.664-13.3,6.9-19.982.521-1.559,1.287-2.193,2.953-2a40.834,40.834,0,0,0,4.47.033,12.4,12.4,0,0,1-.313,1.554q-5.894,16.868-11.8,33.735c-.337.97-.8,1.434-1.882,1.324-.991-.1-2-.021-3-.021-3.62,0-3.591-.008-4.75-3.333q-5.45-15.635-10.937-31.259C123.776,4954.14,123.6,4953.556,123.334,4952.729Z" transform="translate(0 0)" fill="#fff"/>
    <path id="Trazado_478" data-name="Trazado 478" d="M221.93,4975.012l-2.551-3.673a15.379,15.379,0,0,1,7.8-3.347,14.129,14.129,0,0,1,9.149,1.089,7.2,7.2,0,0,1,4.1,6.49c.169,5.608.05,11.225.05,16.965h-6.307l-.228-2.5a8.97,8.97,0,0,1-9.222,2.647c-4.941-1.266-7.667-5.926-5.994-10.509,1.373-3.764,4.737-4.537,8.186-4.853,2.16-.2,4.353-.037,6.516-.037.115-2.619-.828-4.062-3.079-3.912A67.227,67.227,0,0,0,221.93,4975.012Zm11.5,6.988a60.543,60.543,0,0,0-6.5.611,2.565,2.565,0,0,0-1.536,1.951,3.014,3.014,0,0,0,1.356,2.332C230.1,4988.392,234.19,4986.375,233.431,4982Z" transform="translate(-22.137 -3.51)" fill="#fff"/>
    <path id="Trazado_479" data-name="Trazado 479" d="M295.775,4992.565H288.9v-2.423c0-3.936.045-7.872-.016-11.807-.051-3.319-1.454-5.031-4-5.108a4.866,4.866,0,0,0-5.107,5.06c-.128,4.057-.061,8.12-.077,12.18,0,.672,0,1.345,0,2.068h-6.854v-24.167h6.733l.291,2.112c.713-.49,1.25-.888,1.813-1.242a9,9,0,0,1,13.961,6.641,22.748,22.748,0,0,1,.126,2.618C295.782,4983.114,295.775,4987.731,295.775,4992.565Z" transform="translate(-34.876 -3.52)" fill="#fff"/>
    <path id="Trazado_480" data-name="Trazado 480" d="M311.136,4985.784c1.608-.286,3-.6,4.413-.735.387-.035.948.412,1.221.788a6.033,6.033,0,0,0,7.543,1.676,2.755,2.755,0,0,0,1.244-1.842c.034-.5-.7-1.312-1.274-1.55-1.431-.594-2.988-.88-4.454-1.4a21.031,21.031,0,0,1-5.154-2.118,6.812,6.812,0,0,1,.922-11.771c5.378-2.864,12.215-1.431,15.041,3.167.317.517.548,1.086.969,1.934a40.9,40.9,0,0,1-4.288,1.038c-.45.062-1.068-.462-1.479-.854a5.224,5.224,0,0,0-5.308-1.547,3.294,3.294,0,0,0-1.983,2.055c-.119.617.81,1.844,1.54,2.138,2.074.835,4.3,1.287,6.436,1.983a11.362,11.362,0,0,1,2.875,1.325c4.395,3,3.78,9.286-1.159,11.594a16.261,16.261,0,0,1-11.023.838C313.866,4991.668,312.112,4989.219,311.136,4985.784Z" transform="translate(-43.808 -3.429)" fill="#fff"/>
    <path id="Trazado_481" data-name="Trazado 481" d="M171.843,4968.452h6.568v24.236h-6.568Z" transform="translate(-11.316 -3.687)" fill="#fff"/>
    <path id="Trazado_482" data-name="Trazado 482" d="M255.622,4968.45h6.593v24.238h-6.593Z" transform="translate(-30.859 -3.686)" fill="#fff"/>
    <path id="Trazado_483" data-name="Trazado 483" d="M196.8,4984.514c-2.122,0-4.245-.035-6.367.013-1.214.027-1.655-.474-1.628-1.671.116-5.22-.736-4.41,4.215-4.462,3.371-.035,6.743.035,10.112-.026,1.438-.025,1.968.458,1.921,1.951-.153,4.94.6,4.124-4.135,4.193C199.545,4984.532,198.171,4984.514,196.8,4984.514Z" transform="translate(-15.272 -5.999)" fill="#fff"/>
    <path id="Trazado_484" data-name="Trazado 484" d="M258.621,4955.291a4,4,0,1,1-3.953,4.1A3.915,3.915,0,0,1,258.621,4955.291Z" transform="translate(-30.636 -0.617)" fill="#fff"/>
    <path id="Trazado_485" data-name="Trazado 485" d="M174.891,4963.259a3.928,3.928,0,0,1-4.018-3.851,4.074,4.074,0,0,1,4.188-4.117,3.978,3.978,0,0,1,3.876,4.007A3.847,3.847,0,0,1,174.891,4963.259Z" transform="translate(-11.089 -0.616)" fill="#fff"/>
    <path id="Trazado_486" data-name="Trazado 486" d="M304.661,4964.669a4.307,4.307,0,0,0,2.8-3.286c-.758-.114-1.224-.172-1.684-.256-1.827-.331-2.823-1.409-2.7-2.992.139-1.737,1.326-2.458,2.87-2.67a3,3,0,0,1,3.46,2.179,6.109,6.109,0,0,1-4.258,7.407Z" transform="translate(-41.927 -0.649)" fill="#fff"/>
  </g>
</svg>
